<svg width="20" height="20" viewBox="0 0 20 20" fill="none" xmlns="http://www.w3.org/2000/svg">
<path d="M17.4454 13.2492C17.3985 13.1421 17.3228 13.0501 17.2266 12.9836C15.9008 12.0727 15.6251 10.5188 15.6251 9.375C15.6251 7.99453 16.6774 6.79219 17.3047 6.19766C17.3664 6.13925 17.4156 6.06888 17.4492 5.99083C17.4828 5.91279 17.5001 5.82872 17.5001 5.74375C17.5001 5.65879 17.4828 5.57472 17.4492 5.49667C17.4156 5.41863 17.3664 5.34825 17.3047 5.28985C16.3141 4.35469 14.6735 3.75 13.1251 3.75C12.0127 3.75086 10.9255 4.08056 10.0001 4.69766C8.92046 3.97372 7.62234 3.6486 6.32897 3.77821C5.0356 3.90781 3.82781 4.48405 2.91333 5.40782C2.36664 5.96593 1.9377 6.62823 1.65197 7.35536C1.36624 8.0825 1.22956 8.85964 1.25005 9.64063C1.28098 10.9588 1.57422 12.2576 2.11265 13.4612C2.65107 14.6649 3.4239 16.5825 4.38599 17.4841C4.96552 18.0317 5.73324 18.3357 6.53052 18.3333C7.90708 18.3293 8.46802 17.5 9.95552 17.5C11.443 17.5 12.004 18.3307 13.3805 18.3333C13.8068 18.3341 14.2286 18.2474 14.62 18.0785C15.0113 17.9095 15.3638 17.662 15.6555 17.3513C16.196 16.7697 16.6635 15.2909 17.0477 14.5961C17.5961 13.5938 17.5258 13.4375 17.4454 13.2492ZM14.7399 16.4997C14.5654 16.685 14.3547 16.8324 14.1209 16.9328C13.887 17.0332 13.635 17.0844 13.3805 17.0833C12.004 17.0774 11.443 16.25 9.95552 16.25C8.46802 16.25 7.90708 17.0789 6.53052 17.0833C6.053 17.0849 5.59316 16.9028 5.24615 16.5747C4.40401 15.7863 3.72744 14.0046 3.25594 12.9518C2.78444 11.8989 2.52748 10.7627 2.50005 9.60938C2.48296 8.99661 2.58932 8.38668 2.81278 7.81586C3.03625 7.24504 3.37227 6.72501 3.80083 6.28672C4.20124 5.87766 4.6796 5.55302 5.20763 5.33202C5.73566 5.11101 6.30264 4.99811 6.87505 5H6.93599C7.90963 5.01026 8.85142 5.34822 9.60943 5.95938C9.72028 6.04813 9.85805 6.09649 10.0001 6.09649C10.1421 6.09649 10.2798 6.04813 10.3907 5.95938C11.165 5.33512 12.1305 4.99636 13.1251 5C14.1182 5.01153 15.0899 5.29088 15.9376 5.8086C14.9219 6.94297 14.3751 8.18906 14.3751 9.375C14.3751 11.232 14.9719 12.7133 16.1079 13.6953C15.7501 14.4154 15.2893 15.9127 14.7399 16.4997ZM10.018 2.34375C10.1914 1.67243 10.583 1.07782 11.1314 0.653511C11.6797 0.229205 12.3536 -0.000694557 13.0469 1.57626e-06H13.1251C13.2908 1.57626e-06 13.4498 0.0658496 13.567 0.18306C13.6842 0.30027 13.7501 0.459241 13.7501 0.625002C13.7501 0.790762 13.6842 0.949733 13.567 1.06694C13.4498 1.18415 13.2908 1.25 13.1251 1.25H13.0469C12.6312 1.24997 12.2273 1.38808 11.8986 1.64263C11.57 1.89719 11.3352 2.25374 11.2313 2.65625C11.1899 2.81683 11.0863 2.95437 10.9435 3.03862C10.8006 3.12286 10.6302 3.14691 10.4696 3.10547C10.309 3.06403 10.1715 2.9605 10.0872 2.81765C10.003 2.6748 9.97892 2.50433 10.0204 2.34375H10.018Z" fill="white"/>
</svg>
