<svg width="1280" height="1080" viewBox="0 0 1280 1080" fill="none" xmlns="http://www.w3.org/2000/svg">
<path d="M-570 -106.143L-293.529 40.3481V162.29L-568.89 53.0683L-569.872 55.0411L-293.529 164.653V262.566L-569.009 182.863L-569.754 184.917L-293.529 264.836V348.25L-569.12 293.786L-569.643 295.894L-293.529 350.463V425.215L-569.226 393.438L-569.537 395.579L-293.529 427.392V497.51L-569.33 487.058L-569.433 489.216L-293.529 499.671V568.328L-569.433 578.784L-569.33 580.942L-293.529 570.489V640.607L-569.537 672.421L-569.226 674.564L-293.529 642.785V717.537L-569.643 772.106L-569.12 774.214L-293.529 719.749V803.163L-569.754 883.083L-569.009 885.137L-293.529 805.433V903.346L-569.872 1012.96L-569.382 1013.95L-568.89 1014.93L-293.529 905.709V1027.65L-570 1174.14L-568.764 1176L-291.987 1029.35H-61.3556L-266.042 1174.23L-264.538 1175.92L-57.4613 1029.35H128.277L-21.1448 1174.34L-19.3641 1175.8L131.564 1029.35H290.289L188.114 1174.5L190.163 1175.65L293.147 1029.35H435.78L376.104 1174.7L378.376 1175.44L438.356 1029.35H572.396L552.743 1174.94L555.146 1175.2L574.833 1029.35H706.167L725.855 1175.2L728.258 1174.94L708.604 1029.35H842.645L902.625 1175.44L904.897 1174.7L845.222 1029.35H987.853L1090.84 1175.65L1092.89 1174.5L990.711 1029.35H1149.44L1300.36 1175.8L1302.15 1174.34L1152.72 1029.35H1338.46L1545.54 1175.92L1547.04 1174.23L1342.36 1029.35H1572.99L1849.76 1176L1851 1174.14L1574.53 1027.65V905.709L1849.89 1014.93L1850.87 1012.96L1574.53 903.346V805.433L1850.01 885.137L1850.76 883.083L1574.53 803.163V719.749L1850.12 774.214L1850.64 772.106L1574.53 717.537V642.784L1850.23 674.562L1850.54 672.421L1574.53 640.607V570.489L1850.33 580.942L1850.43 578.784L1574.53 568.328V499.671L1850.43 489.216L1850.33 487.058L1574.53 497.51V427.392L1850.54 395.579L1850.23 393.438L1574.53 425.215V350.461L1850.64 295.894L1850.12 293.786L1574.53 348.25V264.836L1850.76 184.917L1850.01 182.863L1574.53 262.566V164.653L1850.87 55.0411L1849.89 53.0683L1574.53 162.29V40.347L1851 -106.144L1849.76 -108L1572.99 38.6537H1342.36L1547.04 -106.227L1545.54 -107.918L1338.46 38.6537H1152.72L1302.14 -106.341L1300.36 -107.803L1149.44 38.6537H990.711L1092.89 -106.497L1090.84 -107.647L987.853 38.6537H845.221L904.896 -106.701L902.625 -107.443L842.645 38.6537H708.604L728.257 -106.942L727.056 -107.072L725.855 -107.201L706.167 38.6537H574.833L555.146 -107.201L552.742 -106.942L572.395 38.6537H438.355L378.375 -107.443L376.103 -106.701L435.778 38.6537H293.147L190.163 -107.647L188.114 -106.497L290.289 38.6537H131.564L-19.3641 -107.803L-21.1459 -106.341L128.277 38.6537H-57.4625L-264.539 -107.918L-266.042 -106.227L-61.3556 38.6537H-291.988L-568.764 -108L-570 -106.143ZM-34.6141 901.132H119.786L-58.3049 1027.19H-287.912L-34.6141 892.973V901.132ZM130.503 1027.19H-54.4106L123.68 901.132H260.407L130.503 1027.19ZM291.809 1027.19H133.79L263.693 901.132H380.542L291.809 1027.19ZM436.667 1027.19H294.666L383.399 901.132H488.419L436.667 1027.19ZM572.688 1027.19H439.243L490.995 901.132H589.703L572.688 1027.19ZM705.876 1027.19H575.125L592.14 901.132H688.861L705.876 1027.19ZM841.758 1027.19H708.314L691.299 901.132H790.005L841.758 1027.19ZM986.334 1027.19H844.334L792.582 901.132H897.601L986.334 1027.19ZM1147.21 1027.19H989.192L900.459 901.132H1017.31L1147.21 1027.19ZM1335.41 1027.19H1150.5L1020.59 901.132H1157.32L1335.41 1027.19ZM1568.91 1027.19H1339.3L1161.21 901.132H1331.01L1568.91 1027.19ZM1572.11 904.748V1026.37L1332.55 899.436V809.729L1572.11 904.748ZM-34.6141 890.461L-291.109 1026.37V904.748L-34.6141 803.01V890.461ZM1572.11 804.733V902.387L1332.55 807.366V735.422L1572.11 804.733ZM-34.6141 800.648L-291.109 902.387V804.733L-34.6141 730.521V800.648ZM122.837 898.973H-32.1943V891.691L150.16 795.069H269.631L122.837 898.973ZM262.632 898.973H126.73L273.524 795.069H369.707L262.632 898.973ZM382.061 898.973H265.919L372.994 795.069H455.201L382.061 898.973ZM489.305 898.973H384.92L458.06 795.069H531.963L489.305 898.973ZM589.993 898.973H491.882L534.54 795.069H604.019L589.993 898.973ZM688.569 898.973H592.431L606.457 795.069H674.545L688.569 898.973ZM789.119 898.973H691.007L676.982 795.069H746.462L789.119 898.973ZM896.081 898.973H791.696L749.038 795.069H822.941L896.081 898.973ZM1015.08 898.973H898.939L825.8 795.069H908.006L1015.08 898.973ZM1154.27 898.973H1018.37L911.293 795.069H1007.48L1154.27 898.973ZM1326.94 898.973H1158.16L1011.37 795.069H1130.84L1326.94 898.973ZM1330.13 808.769V898.154L1132.38 793.374V730.331L1330.13 808.769ZM148.618 793.374L-32.1943 889.179V802.05L148.618 730.331V793.374ZM1330.13 734.722V806.406L1132.38 727.969V677.507L1330.13 734.722ZM1572.11 719.271V802.463L1332.55 733.152V671.928L1572.11 719.271ZM-34.6141 728.251L-291.109 802.463V719.271L-34.6141 668.58V728.251ZM148.618 727.969L-32.1943 799.688V729.821L148.618 677.507V727.969ZM272.682 792.91H154.235L280.018 726.263H366.841L272.682 792.91ZM371.932 792.91H276.575L370.734 726.263H440.614L371.932 792.91ZM456.721 792.91H375.219L443.901 726.263H503.636L456.721 792.91ZM532.849 792.91H459.579L506.494 726.263H560.211L532.849 792.91ZM604.31 792.91H535.426L562.788 726.263H613.306L604.31 792.91ZM674.253 792.91H606.747L615.744 726.263H665.257L674.253 792.91ZM745.574 792.91H676.69L667.694 726.263H718.213L745.574 792.91ZM821.421 792.91H748.151L720.789 726.263H774.506L821.421 792.91ZM905.781 792.91H824.279L777.366 726.263H837.099L905.781 792.91ZM1004.43 792.91H909.068L840.386 726.263H910.267L1004.43 792.91ZM1126.77 792.91H1008.32L914.159 726.263H1000.98L1126.77 792.91ZM1129.96 729.371V792.092L1002.53 724.568V678.823L1129.96 729.371ZM278.476 724.567L151.038 792.092V729.371L278.476 678.822V724.567ZM1330.13 671.449V732.452L1132.38 675.237V632.368L1330.13 671.449ZM148.618 675.237L-32.1943 727.551V668.102L148.618 632.368V675.237ZM1129.96 676.807V727.008L1002.53 676.46V639.936L1129.96 676.807ZM278.476 676.46L151.038 727.008V676.807L278.476 639.936V676.46ZM369.892 724.103H284.093L389.897 668.041H449.096L369.892 724.103ZM442.84 724.103H373.785L452.99 668.041H500.615L442.84 724.103ZM505.155 724.103H446.127L503.9 668.041H544.619L505.155 724.103ZM561.098 724.103H508.013L547.476 668.041H584.114L561.098 724.103ZM613.598 724.103H563.675L586.691 668.041H621.164L613.598 724.103ZM664.966 724.103H616.035L623.603 668.041H657.398L664.966 724.103ZM717.326 724.103H667.402L659.836 668.041H694.309L717.326 724.103ZM772.987 724.103H719.903L696.886 668.041H733.524L772.987 724.103ZM834.873 724.103H775.845L736.382 668.041H777.1L834.873 724.103ZM907.216 724.103H838.16L780.387 668.041H828.012L907.216 724.103ZM996.907 724.103H911.108L831.904 668.041H891.103L996.907 724.103ZM1000.11 677.864V723.286L892.646 666.347V635.239L1000.11 677.864ZM388.355 666.347L280.896 723.285V677.863L388.355 635.239V666.347ZM1572.11 642.505V717.059L1332.55 669.715V614.892L1572.11 642.505ZM-34.6141 666.368L-291.109 717.059V642.506L-34.6141 612.942V666.368ZM1000.11 639.236V675.501L892.646 632.877V608.145L1000.11 639.236ZM388.355 632.876L280.896 675.5V639.236L388.355 608.145V632.876ZM1129.96 631.89V674.537L1002.53 637.666V606.705L1129.96 631.89ZM278.476 637.666L151.038 674.537V631.89L278.476 606.704V637.666ZM1330.13 614.614V669.238L1132.38 630.157V591.82L1330.13 614.614ZM148.618 630.157L-32.1943 665.89V612.662L148.618 591.821V630.157ZM452.147 665.882H393.974L479.8 620.406H516.396L452.147 665.882ZM502.839 665.882H456.04L520.289 620.406H549.703L502.839 665.882ZM546.139 665.882H506.126L552.99 620.406H578.151L546.139 665.882ZM585 665.882H548.997L581.008 620.406H603.671L585 665.882ZM621.456 665.882H587.577L606.248 620.406H627.594L621.456 665.882ZM657.106 665.882H623.894L630.033 620.406H650.968L657.106 665.882ZM693.423 665.882H659.544L653.406 620.406H674.752L693.423 665.882ZM732.003 665.882H696L677.329 620.406H699.992L732.003 665.882ZM774.874 665.882H734.863L702.85 620.406H728.01L774.874 665.882ZM824.961 665.882H778.161L731.297 620.406H760.712L824.961 665.882ZM887.026 665.882H828.853L764.604 620.406H801.2L887.026 665.882ZM890.226 634.279V665.064L802.745 618.711V599.58L890.226 634.279ZM478.256 618.711L390.775 665.064V634.279L478.256 599.579V618.711ZM1572.11 570.398V640.327L1332.55 612.715V561.319L1572.11 570.398ZM-34.6141 610.763L-291.109 640.327V570.398L-34.6141 560.677V610.763ZM1000.11 606.226V636.966L892.646 605.875V584.988L1000.11 606.226ZM388.355 605.875L280.896 636.966V606.226L388.355 584.988V605.875ZM890.226 607.445V631.916L802.745 597.217V582.134L890.226 607.445ZM478.256 597.217L390.775 631.916V607.445L478.256 582.134V597.217ZM1129.96 591.54V629.678L1002.53 604.493V576.852L1129.96 591.54ZM278.476 604.493L151.038 629.678V591.542L278.476 576.853V604.493ZM519.447 618.246H483.875L576.709 569.057H588.942L519.447 618.246ZM551.929 618.246H523.34L592.835 569.057H602.62L551.929 618.246ZM579.67 618.246H555.216L605.907 569.057H614.296L579.67 618.246ZM604.557 618.246H582.528L617.154 569.057H624.753L604.557 618.246ZM627.886 618.246H607.134L627.328 569.057H634.526L627.886 618.246ZM650.677 618.246H630.324L636.964 569.057H644.037L650.677 618.246ZM673.866 618.246H653.114L646.474 569.057H653.672L673.866 618.246ZM698.472 618.246H676.443L656.249 569.057H663.846L698.472 618.246ZM725.784 618.246H701.331L666.705 569.057H675.093L725.784 618.246ZM757.661 618.246H729.071L678.38 569.057H688.166L757.661 618.246ZM797.125 618.246H761.553L692.058 569.057H704.291L797.125 618.246ZM800.325 598.62V617.429L704.624 566.721V560.66L800.325 598.62ZM576.376 566.721L480.676 617.429V598.62L576.376 560.66V566.721ZM1330.13 561.228V612.436L1132.38 589.643V553.733L1330.13 561.228ZM148.618 589.643L-32.1943 610.484V560.586L148.618 553.733V589.643ZM890.226 584.511V605.175L802.745 579.864L802.746 567.222L890.226 584.511ZM478.256 579.864L390.775 605.175V584.511L478.256 567.222V579.864ZM1000.11 576.573V604.015L892.646 582.777V564.186L1000.11 576.573ZM388.355 582.777L280.896 604.014V576.574L388.355 564.187V582.777ZM800.325 581.434V596.258L704.624 558.297V553.746L800.325 581.434ZM576.376 558.297L480.676 596.257V581.434L576.376 553.746V558.297ZM1129.96 553.641V589.364L1002.53 574.674V548.812L1129.96 553.641ZM278.476 574.674L151.038 589.364V553.641L278.476 548.812V574.674ZM890.226 563.908V582.299L802.746 565.011L802.745 553.824L890.226 563.908ZM478.256 565.011L390.775 582.299V563.909L478.256 553.825V565.011ZM800.326 566.743L800.325 579.164L704.624 551.476V547.831L800.326 566.743ZM576.376 551.476L480.676 579.164V566.743L576.376 547.831V551.476ZM1000.11 548.72V574.396L892.646 562.009V544.647L1000.11 548.72ZM388.355 562.009L280.896 574.396V548.72L388.355 544.647V562.009ZM1572.11 568.236L1332.55 559.158V508.841L1572.11 499.763V568.236ZM-34.6141 509.483V558.516L-291.109 568.236V499.763L-34.6141 509.483ZM591.993 566.897H580.785L625.364 543.277L591.993 566.897ZM604.846 566.897H595.886L629.001 543.457L604.846 566.897ZM615.816 566.897H608.132L632.376 543.373L615.816 566.897ZM625.639 566.897H618.674L635.386 543.156L625.639 566.897ZM634.817 566.897H628.216L638.052 542.94L634.817 566.897ZM643.746 566.897H637.256L640.501 542.854L643.746 566.897ZM652.784 566.897H646.183L642.949 542.94L652.784 566.897ZM662.326 566.897H655.361L645.615 543.156L662.326 566.897ZM672.868 566.897H665.186L648.629 543.376L672.868 566.897ZM685.116 566.897H676.154L651.996 543.454L685.116 566.897ZM700.216 566.897H689.008L655.638 543.277L700.216 566.897ZM702.204 559.701V565.439L659.127 542.613L702.204 559.701ZM578.796 565.439V559.701L621.875 542.613L578.796 565.439ZM800.325 553.545L800.326 564.532L704.624 545.618V542.514L800.325 553.545ZM576.376 545.619L480.676 564.532V553.546L576.376 542.515V545.619ZM890.226 544.556V561.731L802.745 551.647L802.746 541.241L890.226 544.556ZM478.256 551.647L390.775 561.731V544.556L478.256 541.241V551.647ZM1330.13 559.066L1132.38 551.572V516.427L1330.13 508.933V559.066ZM148.618 516.427V551.572L-32.1943 558.424V509.575L148.618 516.427ZM702.204 553.046V557.338L662.208 541.473L702.204 553.046ZM578.796 557.338V553.046L618.793 541.473L578.796 557.338ZM1129.96 551.48L1002.53 546.651V521.348L1129.96 516.519V551.48ZM278.476 521.348V546.651L151.038 551.48V516.519L278.476 521.348ZM800.326 541.149L800.325 551.368L704.624 540.337V537.523L800.326 541.149ZM576.376 540.337L480.676 551.368V541.149L576.376 537.523V540.337ZM702.204 547.352V550.775L664.874 539.974L702.204 547.352ZM578.796 550.775V547.352L616.125 539.975L578.796 550.775ZM1000.11 546.559L892.646 542.487V525.512L1000.11 521.44V546.559ZM388.355 525.512V542.487L280.896 546.559V521.44L388.355 525.512ZM702.204 542.236V545.141L666.931 538.169L702.204 542.236ZM578.796 545.141V542.237L614.06 538.172L578.796 545.141ZM890.226 542.395L802.746 539.08V528.919L890.226 525.604V542.395ZM478.256 528.919V539.08L390.775 542.395V525.604L478.256 528.919ZM702.204 537.431V540.059L668.241 536.144L702.204 537.431ZM578.796 540.059V537.431L612.759 536.144L578.796 540.059ZM800.326 538.988L704.624 535.361V532.638L800.326 529.011V538.988ZM576.376 532.638V535.361L480.676 538.988V529.011L576.376 532.638ZM702.204 535.27L668.695 534L702.204 532.729V535.27ZM612.308 534L578.796 535.27V532.729L612.308 534ZM702.204 530.568L668.241 531.855L702.204 527.94V530.568ZM612.759 531.855L578.796 530.568V527.94L612.759 531.855ZM800.326 526.85L704.624 530.476V527.662L800.325 516.631L800.326 526.85ZM576.376 527.662V530.476L480.676 526.85V516.631L576.376 527.662ZM702.204 525.763L666.931 529.83L702.204 522.858V525.763ZM614.061 529.828L578.796 525.763V522.859L614.061 529.828ZM702.204 520.647L664.874 528.025L702.204 517.224V520.647ZM616.125 528.024L578.796 520.647V517.224L616.125 528.024ZM890.226 523.443L802.746 526.758L802.745 516.352L890.226 506.268V523.443ZM478.256 516.352V526.758L390.775 523.443V506.268L478.256 516.352ZM702.204 514.953L662.208 526.526L702.204 510.661V514.953ZM618.793 526.526L578.796 514.953V510.661L618.793 526.526ZM800.325 514.454L704.624 525.485V522.381L800.326 503.467L800.325 514.454ZM576.376 522.381V525.485L480.676 514.454V503.468L576.376 522.381ZM702.204 508.298L659.135 525.382L702.204 502.561V508.298ZM621.866 525.382L578.796 508.298V502.561L621.866 525.382ZM640.5 525.146L637.254 501.103H643.745L640.5 525.146ZM642.949 525.059L646.183 501.103H652.784L642.949 525.059ZM638.052 525.059L628.216 501.103H634.817L638.052 525.059ZM645.615 524.843L655.361 501.103H662.326L645.615 524.843ZM635.386 524.843L618.674 501.103H625.639L635.386 524.843ZM655.632 524.727L689.008 501.103H700.217L655.632 524.727ZM625.369 524.727L580.783 501.103H591.993L625.369 524.727ZM648.625 524.626L665.184 501.103H672.868L648.625 524.626ZM632.372 524.623L608.132 501.103H615.814L632.372 524.623ZM629.005 524.545L595.884 501.103H604.846L629.005 524.545ZM652 524.542L676.154 501.103H685.114L652 524.542ZM1000.11 519.279L892.646 523.352V505.99L1000.11 493.603V519.279ZM388.355 505.99V523.352L280.896 519.279V493.603L388.355 505.99ZM800.326 501.256L704.624 520.168V516.523L800.325 488.835L800.326 501.256ZM576.376 516.523V520.168L480.676 501.256V488.835L576.376 516.523ZM1129.96 514.358L1002.53 519.187V493.325L1129.96 478.635V514.358ZM278.476 493.325V519.187L151.038 514.358V478.635L278.476 493.325ZM1330.13 506.771L1132.38 514.266V478.356L1330.13 455.562V506.771ZM148.618 478.356V514.266L-32.1943 507.413V457.515L148.618 478.356ZM800.325 486.565L704.624 514.253V509.701L800.325 471.741V486.565ZM576.376 509.701V514.253L480.676 486.565V471.742L576.376 509.701ZM890.226 504.091L802.745 514.175L802.746 502.988L890.226 485.7V504.091ZM478.256 502.989V514.175L390.775 504.091V485.7L478.256 502.989ZM800.325 469.379L704.624 507.339V501.279L800.325 450.57V469.379ZM576.376 501.279V507.339L480.676 469.379V450.571L576.376 501.279ZM-34.6141 457.236V507.322L-291.109 497.601V427.672L-34.6141 457.236ZM1572.11 497.601L1332.55 506.68V455.284L1572.11 427.672V497.601ZM1000.11 491.426L892.646 503.813V485.222L1000.11 463.984V491.426ZM388.355 485.223V503.813L280.896 491.426V463.985L388.355 485.223ZM890.226 483.488L802.746 500.777L802.745 488.135L890.226 462.824V483.488ZM478.256 488.135V500.777L390.775 483.488V462.824L478.256 488.135ZM704.293 498.943H692.058L761.553 449.754H797.127L704.293 498.943ZM588.942 498.943H576.707L483.874 449.754H519.447L588.942 498.943ZM602.62 498.943H592.834L523.339 449.754H551.929L602.62 498.943ZM614.295 498.943H605.907L555.216 449.754H579.669L614.295 498.943ZM624.751 498.943H617.154L582.528 449.754H604.557L624.751 498.943ZM634.526 498.943H627.328L607.134 449.754H627.886L634.526 498.943ZM644.036 498.943H636.963L630.322 449.754H650.677L644.036 498.943ZM653.672 498.943H646.474L653.114 449.754H673.866L653.672 498.943ZM663.846 498.943H656.247L676.443 449.754H698.472L663.846 498.943ZM675.093 498.943H666.704L701.33 449.754H725.784L675.093 498.943ZM688.165 498.943H678.38L729.071 449.754H757.66L688.165 498.943ZM1129.96 476.458L1002.53 491.147V463.506L1129.96 438.321V476.458ZM278.476 463.507V491.147L151.038 476.458V438.321L278.476 463.507ZM890.226 460.554L802.745 485.865V470.782L890.226 436.083V460.554ZM478.256 470.782V485.865L390.775 460.554V436.083L478.256 470.782ZM1000.11 461.773L892.646 483.011V462.124L1000.11 431.033V461.773ZM388.355 462.124V483.011L280.896 461.773V431.033L388.355 462.124ZM1330.13 453.385L1132.38 476.179V437.842L1330.13 398.761V453.385ZM148.618 437.843V476.179L-32.1943 455.338V402.11L148.618 437.843ZM478.256 449.289V468.42L390.775 433.72V402.936L478.256 449.289ZM890.226 433.72L802.745 468.419V449.288L890.226 402.935V433.72ZM278.476 430.333V461.295L151.038 436.109V393.462L278.476 430.333ZM1129.96 436.109L1002.53 461.294V430.333L1129.96 393.462V436.109ZM1000.11 428.763L892.646 459.854V435.122L1000.11 392.498V428.763ZM388.355 435.123V459.854L280.896 428.763V392.499L388.355 435.123ZM-34.6141 401.631V455.059L-291.109 425.494V350.94L-34.6141 401.631ZM1572.11 425.494L1332.55 453.107V398.284L1572.11 350.94V425.494ZM516.396 447.594H479.797L393.971 402.118H452.147L516.396 447.594ZM549.703 447.594H520.288L456.039 402.118H502.839L549.703 447.594ZM578.15 447.594H552.99L506.126 402.118H546.138L578.15 447.594ZM603.671 447.594H581.008L548.997 402.118H585L603.671 447.594ZM627.594 447.594H606.248L587.577 402.118H621.456L627.594 447.594ZM650.967 447.594H630.032L623.894 402.118H657.106L650.967 447.594ZM674.752 447.594H653.406L659.544 402.118H693.423L674.752 447.594ZM699.992 447.594H677.329L696 402.118H732.003L699.992 447.594ZM728.01 447.594H702.849L734.861 402.118H774.874L728.01 447.594ZM760.711 447.594H731.297L778.161 402.118H824.96L760.711 447.594ZM801.203 447.594H764.604L828.853 402.118H887.029L801.203 447.594ZM1330.13 396.55L1132.38 435.631V392.762L1330.13 335.547V396.55ZM148.618 392.762V435.631L-32.1943 399.897V340.448L148.618 392.762ZM1000.11 390.135L892.646 432.76V401.652L1000.11 344.714V390.135ZM388.355 401.653V432.76L280.896 390.136V344.715L388.355 401.653ZM1129.96 391.192L1002.53 428.063V391.539L1129.96 340.991V391.192ZM278.476 391.539V428.063L151.038 391.192V340.991L278.476 391.539ZM449.096 399.959H389.896L284.092 343.897H369.892L449.096 399.959ZM500.613 399.959H452.988L373.784 343.897H442.84L500.613 399.959ZM544.618 399.959H503.9L446.127 343.897H505.155L544.618 399.959ZM584.114 399.959H547.476L508.013 343.897H561.097L584.114 399.959ZM621.164 399.959H586.691L563.674 343.897H613.597L621.164 399.959ZM657.397 399.959H623.602L616.034 343.897H664.965L657.397 399.959ZM694.309 399.959H659.836L667.402 343.897H717.326L694.309 399.959ZM733.524 399.959H696.886L719.902 343.897H772.987L733.524 399.959ZM777.1 399.959H736.381L775.845 343.897H834.873L777.1 399.959ZM828.01 399.959H780.386L838.16 343.897H907.215L828.01 399.959ZM891.104 399.959H831.904L911.108 343.897H996.908L891.104 399.959ZM-34.6141 339.748V399.419L-291.109 348.728V265.536L-34.6141 339.748ZM1572.11 348.728L1332.55 396.071V334.847L1572.11 265.536V348.728ZM1330.13 333.277L1132.38 390.492V340.03L1330.13 261.593V333.277ZM148.618 340.03V390.492L-32.1943 338.178V268.311L148.618 340.03ZM278.476 343.433V389.177L151.038 338.628V275.907L278.476 343.433ZM1129.96 338.628L1002.53 389.176V343.432L1129.96 275.907V338.628ZM366.841 341.737H280.016L154.234 275.09H272.682L366.841 341.737ZM440.614 341.737H370.733L276.574 275.09H371.932L440.614 341.737ZM503.635 341.737H443.901L375.219 275.09H456.721L503.635 341.737ZM560.211 341.737H506.494L459.579 275.09H532.849L560.211 341.737ZM613.306 341.737H562.788L535.426 275.09H604.31L613.306 341.737ZM665.257 341.737H615.744L606.747 275.09H674.253L665.257 341.737ZM718.213 341.737H667.694L676.69 275.09H745.574L718.213 341.737ZM774.506 341.737H720.789L748.151 275.09H821.421L774.506 341.737ZM837.099 341.737H777.364L824.279 275.09H905.781L837.099 341.737ZM910.266 341.737H840.386L909.068 275.09H1004.43L910.266 341.737ZM1000.98 341.737H914.159L1008.32 275.09H1126.77L1000.98 341.737ZM1330.13 259.23L1132.38 337.669V274.625L1314.74 178.003L1330.13 169.365V259.23ZM148.618 274.625V337.669L-32.1943 265.949V178.82L148.618 274.625ZM-34.6141 267.351V337.478L-291.109 263.266V165.612L-34.6141 267.351ZM1572.11 263.266L1332.55 332.577V260.633L1572.11 165.612V263.266ZM269.631 272.931H150.159L-28.9972 178.003H135.516L269.631 272.931ZM369.707 272.931H273.523L139.409 178.003H271.881L369.707 272.931ZM455.2 272.931H372.994L275.168 178.003H388.379L455.2 272.931ZM531.962 272.931H458.06L391.237 178.003H492.989L531.962 272.931ZM604.018 272.931H534.538L495.566 178.003H591.204L604.018 272.931ZM674.543 272.931H606.456L593.642 178.003H687.357L674.543 272.931ZM746.462 272.931H676.982L689.794 178.003H785.434L746.462 272.931ZM822.941 272.931H749.037L788.011 178.003H889.763L822.941 272.931ZM908.006 272.931H825.799L892.621 178.003H1005.83L908.006 272.931ZM1007.48 272.931H911.293L1009.12 178.003H1141.59L1007.48 272.931ZM1130.84 272.931H1011.37L1145.48 178.003H1310L1130.84 272.931ZM-34.6141 177.538V264.989L-291.109 163.25V41.6302L-34.6141 177.538ZM1572.11 163.25L1332.55 258.27V167.206L1318.81 175.843L1572.11 41.6292V163.25ZM132.465 175.843H-33.0734L-287.912 40.8131H-58.3049L132.465 175.843ZM269.655 175.843H136.359L-54.4117 40.8131H130.502L269.655 175.843ZM386.858 175.843H272.942L133.79 40.8131H291.808L386.858 175.843ZM492.103 175.843H389.717L294.666 40.8131H436.666L492.103 175.843ZM590.913 175.843H494.679L439.243 40.8131H572.686L590.913 175.843ZM687.649 175.843H593.35L575.124 40.8131H705.875L687.649 175.843ZM786.322 175.843H690.086L708.312 40.8131H841.758L786.322 175.843ZM891.284 175.843H788.897L844.333 40.8131H986.334L891.284 175.843ZM1008.06 175.843H894.14L989.191 40.8131H1147.21L1008.06 175.843ZM1144.64 175.843H1011.34L1150.5 40.8131H1335.41L1144.64 175.843ZM1314.07 175.843H1148.53L1339.3 40.8131H1568.91L1314.07 175.843Z" fill="url(#paint0_linear_1_273)" fill-opacity="0.75"/>
<path d="M737.297 672.167L849.849 831.812" stroke="url(#paint1_linear_1_273)" stroke-width="6" stroke-linecap="round"/>
<path d="M306 356.881L103 249.361" stroke="url(#paint2_linear_1_273)" stroke-width="6" stroke-linecap="round"/>
<path d="M485.5 616.091L105.5 818.193" stroke="url(#paint3_linear_1_273)" stroke-width="6" stroke-linecap="round"/>
<path d="M840.5 541.585L1281.96 558.361" stroke="url(#paint4_linear_1_273)" stroke-width="6" stroke-linecap="round"/>
<path d="M844.11 453.237L1078.46 359.627" stroke="url(#paint5_linear_1_273)" stroke-width="6" stroke-linecap="round"/>
<defs>
<linearGradient id="paint0_linear_1_273" x1="640.5" y1="-108" x2="640.5" y2="1176" gradientUnits="userSpaceOnUse">
<stop stop-color="#3F4246" stop-opacity="0.16"/>
<stop offset="1" stop-color="#3F4246" stop-opacity="0"/>
</linearGradient>
<linearGradient id="paint1_linear_1_273" x1="849.366" y1="831.61" x2="754.906" y2="662.667" gradientUnits="userSpaceOnUse">
<stop stop-color="#5F8AFA" stop-opacity="0"/>
<stop offset="0.25" stop-color="#5F8AFA"/>
<stop offset="0.75" stop-color="#4FD1D9"/>
<stop offset="1" stop-color="#4FD1D9" stop-opacity="0"/>
</linearGradient>
<linearGradient id="paint2_linear_1_273" x1="204.5" y1="249.361" x2="204.5" y2="356.881" gradientUnits="userSpaceOnUse">
<stop stop-color="#5F8AFA" stop-opacity="0"/>
<stop offset="0.25" stop-color="#5F8AFA"/>
<stop offset="0.75" stop-color="#4FD1D9"/>
<stop offset="1" stop-color="#4FD1D9" stop-opacity="0.113725"/>
</linearGradient>
<linearGradient id="paint3_linear_1_273" x1="106" y1="817.301" x2="461.297" y2="580.91" gradientUnits="userSpaceOnUse">
<stop stop-color="#5F8AFA" stop-opacity="0"/>
<stop offset="0.25" stop-color="#5F8AFA"/>
<stop offset="0.75" stop-color="#4FD1D9"/>
<stop offset="1" stop-color="#4FD1D9" stop-opacity="0"/>
</linearGradient>
<linearGradient id="paint4_linear_1_273" x1="1280.99" y1="558.861" x2="840.981" y2="535.557" gradientUnits="userSpaceOnUse">
<stop stop-color="#5F8AFA" stop-opacity="0"/>
<stop offset="0.25" stop-color="#5F8AFA"/>
<stop offset="0.75" stop-color="#4FD1D9"/>
<stop offset="1" stop-color="#4FD1D9" stop-opacity="0"/>
</linearGradient>
<linearGradient id="paint5_linear_1_273" x1="1078.11" y1="360.112" x2="853.937" y2="472.046" gradientUnits="userSpaceOnUse">
<stop stop-color="#5F8AFA" stop-opacity="0"/>
<stop offset="0.25" stop-color="#5F8AFA"/>
<stop offset="0.75" stop-color="#4FD1D9"/>
<stop offset="1" stop-color="#4FD1D9" stop-opacity="0"/>
</linearGradient>
</defs>
</svg>
